<mxfile host="app.diagrams.net" modified="2021-05-16T02:20:55.493Z" agent="5.0 (Windows)" etag="sL_GgeR7lE_wVdFYCEfc" version="14.6.12" type="github">
  <diagram id="EhWtwpeXCGjJ4XowC7TY" name="Page-1">
    <mxGraphModel dx="2272" dy="803" grid="1" gridSize="10" guides="1" tooltips="1" connect="1" arrows="1" fold="1" page="1" pageScale="1" pageWidth="850" pageHeight="1100" math="0" shadow="0">
      <root>
        <mxCell id="0" />
        <mxCell id="1" parent="0" />
        <mxCell id="9wh7mOHJgfpe4IS8YTvC-1" value="Admin" style="text;html=1;align=center;verticalAlign=middle;resizable=0;points=[];autosize=1;strokeColor=none;fontSize=24;" vertex="1" parent="1">
          <mxGeometry width="80" height="30" as="geometry" />
        </mxCell>
        <mxCell id="9wh7mOHJgfpe4IS8YTvC-11" style="edgeStyle=orthogonalEdgeStyle;rounded=0;orthogonalLoop=1;jettySize=auto;html=1;exitX=0.5;exitY=1;exitDx=0;exitDy=0;fontSize=12;entryX=0.5;entryY=0;entryDx=0;entryDy=0;" edge="1" parent="1" source="9wh7mOHJgfpe4IS8YTvC-2" target="9wh7mOHJgfpe4IS8YTvC-30">
          <mxGeometry relative="1" as="geometry">
            <mxPoint x="260" y="150" as="targetPoint" />
          </mxGeometry>
        </mxCell>
        <mxCell id="9wh7mOHJgfpe4IS8YTvC-12" style="edgeStyle=orthogonalEdgeStyle;rounded=0;orthogonalLoop=1;jettySize=auto;html=1;exitX=0.5;exitY=1;exitDx=0;exitDy=0;entryX=0.5;entryY=0;entryDx=0;entryDy=0;fontSize=12;" edge="1" parent="1" source="9wh7mOHJgfpe4IS8YTvC-2" target="9wh7mOHJgfpe4IS8YTvC-28">
          <mxGeometry relative="1" as="geometry">
            <mxPoint x="577.5" y="150" as="targetPoint" />
          </mxGeometry>
        </mxCell>
        <mxCell id="9wh7mOHJgfpe4IS8YTvC-14" style="edgeStyle=orthogonalEdgeStyle;rounded=0;orthogonalLoop=1;jettySize=auto;html=1;exitX=0.5;exitY=1;exitDx=0;exitDy=0;entryX=0.5;entryY=0;entryDx=0;entryDy=0;fontSize=12;" edge="1" parent="1" source="9wh7mOHJgfpe4IS8YTvC-2" target="9wh7mOHJgfpe4IS8YTvC-27">
          <mxGeometry relative="1" as="geometry">
            <mxPoint x="100" y="150" as="targetPoint" />
          </mxGeometry>
        </mxCell>
        <mxCell id="9wh7mOHJgfpe4IS8YTvC-93" style="edgeStyle=orthogonalEdgeStyle;rounded=0;orthogonalLoop=1;jettySize=auto;html=1;exitX=0.5;exitY=1;exitDx=0;exitDy=0;entryX=0.5;entryY=0;entryDx=0;entryDy=0;fontSize=12;" edge="1" parent="1" source="9wh7mOHJgfpe4IS8YTvC-2" target="9wh7mOHJgfpe4IS8YTvC-29">
          <mxGeometry relative="1" as="geometry" />
        </mxCell>
        <mxCell id="9wh7mOHJgfpe4IS8YTvC-2" value="Home" style="rounded=1;whiteSpace=wrap;html=1;fontSize=12;fillColor=#fff2cc;strokeColor=#d6b656;" vertex="1" parent="1">
          <mxGeometry x="375" y="30" width="90" height="30" as="geometry" />
        </mxCell>
        <mxCell id="9wh7mOHJgfpe4IS8YTvC-51" style="edgeStyle=orthogonalEdgeStyle;rounded=0;orthogonalLoop=1;jettySize=auto;html=1;exitX=0;exitY=0.5;exitDx=0;exitDy=0;entryX=0;entryY=0.5;entryDx=0;entryDy=0;fontSize=12;" edge="1" parent="1" source="9wh7mOHJgfpe4IS8YTvC-6" target="9wh7mOHJgfpe4IS8YTvC-37">
          <mxGeometry relative="1" as="geometry" />
        </mxCell>
        <mxCell id="9wh7mOHJgfpe4IS8YTvC-52" style="edgeStyle=orthogonalEdgeStyle;rounded=0;orthogonalLoop=1;jettySize=auto;html=1;exitX=0;exitY=0.5;exitDx=0;exitDy=0;entryX=0;entryY=0.5;entryDx=0;entryDy=0;fontSize=12;" edge="1" parent="1" source="9wh7mOHJgfpe4IS8YTvC-6" target="9wh7mOHJgfpe4IS8YTvC-38">
          <mxGeometry relative="1" as="geometry" />
        </mxCell>
        <mxCell id="9wh7mOHJgfpe4IS8YTvC-53" style="edgeStyle=orthogonalEdgeStyle;rounded=0;orthogonalLoop=1;jettySize=auto;html=1;exitX=0;exitY=0.5;exitDx=0;exitDy=0;entryX=0;entryY=0.5;entryDx=0;entryDy=0;fontSize=12;" edge="1" parent="1" source="9wh7mOHJgfpe4IS8YTvC-6" target="9wh7mOHJgfpe4IS8YTvC-39">
          <mxGeometry relative="1" as="geometry" />
        </mxCell>
        <mxCell id="9wh7mOHJgfpe4IS8YTvC-6" value="Recipe" style="rounded=1;whiteSpace=wrap;html=1;fontSize=12;fillColor=#d5e8d4;strokeColor=#82b366;" vertex="1" parent="1">
          <mxGeometry x="375" y="130" width="90" height="30" as="geometry" />
        </mxCell>
        <mxCell id="9wh7mOHJgfpe4IS8YTvC-9" value="" style="endArrow=classic;html=1;fontSize=12;exitX=0.5;exitY=1;exitDx=0;exitDy=0;" edge="1" parent="1" source="9wh7mOHJgfpe4IS8YTvC-2" target="9wh7mOHJgfpe4IS8YTvC-6">
          <mxGeometry width="50" height="50" relative="1" as="geometry">
            <mxPoint x="400" y="430" as="sourcePoint" />
            <mxPoint x="450" y="380" as="targetPoint" />
          </mxGeometry>
        </mxCell>
        <mxCell id="9wh7mOHJgfpe4IS8YTvC-43" style="edgeStyle=orthogonalEdgeStyle;rounded=0;orthogonalLoop=1;jettySize=auto;html=1;exitX=0;exitY=0.5;exitDx=0;exitDy=0;entryX=0;entryY=0.5;entryDx=0;entryDy=0;fontSize=12;" edge="1" parent="1" source="9wh7mOHJgfpe4IS8YTvC-27" target="9wh7mOHJgfpe4IS8YTvC-31">
          <mxGeometry relative="1" as="geometry" />
        </mxCell>
        <mxCell id="9wh7mOHJgfpe4IS8YTvC-44" style="edgeStyle=orthogonalEdgeStyle;rounded=0;orthogonalLoop=1;jettySize=auto;html=1;exitX=0;exitY=0.5;exitDx=0;exitDy=0;entryX=0;entryY=0.5;entryDx=0;entryDy=0;fontSize=12;" edge="1" parent="1" source="9wh7mOHJgfpe4IS8YTvC-27" target="9wh7mOHJgfpe4IS8YTvC-32">
          <mxGeometry relative="1" as="geometry" />
        </mxCell>
        <mxCell id="9wh7mOHJgfpe4IS8YTvC-45" style="edgeStyle=orthogonalEdgeStyle;rounded=0;orthogonalLoop=1;jettySize=auto;html=1;exitX=0;exitY=0.5;exitDx=0;exitDy=0;entryX=0;entryY=0.5;entryDx=0;entryDy=0;fontSize=12;" edge="1" parent="1" source="9wh7mOHJgfpe4IS8YTvC-27" target="9wh7mOHJgfpe4IS8YTvC-33">
          <mxGeometry relative="1" as="geometry" />
        </mxCell>
        <mxCell id="9wh7mOHJgfpe4IS8YTvC-46" style="edgeStyle=orthogonalEdgeStyle;rounded=0;orthogonalLoop=1;jettySize=auto;html=1;exitX=0;exitY=0.5;exitDx=0;exitDy=0;entryX=0;entryY=0.5;entryDx=0;entryDy=0;fontSize=12;" edge="1" parent="1" source="9wh7mOHJgfpe4IS8YTvC-27" target="9wh7mOHJgfpe4IS8YTvC-34">
          <mxGeometry relative="1" as="geometry" />
        </mxCell>
        <mxCell id="9wh7mOHJgfpe4IS8YTvC-27" value="Product" style="rounded=1;whiteSpace=wrap;html=1;fontSize=12;fillColor=#d5e8d4;strokeColor=#82b366;" vertex="1" parent="1">
          <mxGeometry x="70" y="130" width="90" height="30" as="geometry" />
        </mxCell>
        <mxCell id="9wh7mOHJgfpe4IS8YTvC-54" style="edgeStyle=orthogonalEdgeStyle;rounded=0;orthogonalLoop=1;jettySize=auto;html=1;exitX=0;exitY=0.5;exitDx=0;exitDy=0;entryX=0;entryY=0.5;entryDx=0;entryDy=0;fontSize=12;" edge="1" parent="1" source="9wh7mOHJgfpe4IS8YTvC-28" target="9wh7mOHJgfpe4IS8YTvC-40">
          <mxGeometry relative="1" as="geometry" />
        </mxCell>
        <mxCell id="9wh7mOHJgfpe4IS8YTvC-55" style="edgeStyle=orthogonalEdgeStyle;rounded=0;orthogonalLoop=1;jettySize=auto;html=1;exitX=0;exitY=0.5;exitDx=0;exitDy=0;entryX=0;entryY=0.5;entryDx=0;entryDy=0;fontSize=12;" edge="1" parent="1" source="9wh7mOHJgfpe4IS8YTvC-28" target="9wh7mOHJgfpe4IS8YTvC-41">
          <mxGeometry relative="1" as="geometry" />
        </mxCell>
        <mxCell id="9wh7mOHJgfpe4IS8YTvC-56" style="edgeStyle=orthogonalEdgeStyle;rounded=0;orthogonalLoop=1;jettySize=auto;html=1;exitX=0;exitY=0.5;exitDx=0;exitDy=0;entryX=0;entryY=0.5;entryDx=0;entryDy=0;fontSize=12;" edge="1" parent="1" source="9wh7mOHJgfpe4IS8YTvC-28" target="9wh7mOHJgfpe4IS8YTvC-42">
          <mxGeometry relative="1" as="geometry" />
        </mxCell>
        <mxCell id="9wh7mOHJgfpe4IS8YTvC-28" value="Reward" style="rounded=1;whiteSpace=wrap;html=1;fontSize=12;fillColor=#d5e8d4;strokeColor=#82b366;" vertex="1" parent="1">
          <mxGeometry x="530" y="130" width="90" height="30" as="geometry" />
        </mxCell>
        <mxCell id="9wh7mOHJgfpe4IS8YTvC-29" value="Graph" style="rounded=1;whiteSpace=wrap;html=1;fontSize=12;fillColor=#d5e8d4;strokeColor=#82b366;" vertex="1" parent="1">
          <mxGeometry x="690" y="130" width="90" height="30" as="geometry" />
        </mxCell>
        <mxCell id="9wh7mOHJgfpe4IS8YTvC-47" style="edgeStyle=orthogonalEdgeStyle;rounded=0;orthogonalLoop=1;jettySize=auto;html=1;exitX=0;exitY=0.5;exitDx=0;exitDy=0;entryX=0;entryY=0.5;entryDx=0;entryDy=0;fontSize=12;" edge="1" parent="1" source="9wh7mOHJgfpe4IS8YTvC-30" target="9wh7mOHJgfpe4IS8YTvC-35">
          <mxGeometry relative="1" as="geometry" />
        </mxCell>
        <mxCell id="9wh7mOHJgfpe4IS8YTvC-48" style="edgeStyle=orthogonalEdgeStyle;rounded=0;orthogonalLoop=1;jettySize=auto;html=1;exitX=0;exitY=0.5;exitDx=0;exitDy=0;entryX=0;entryY=0.5;entryDx=0;entryDy=0;fontSize=12;" edge="1" parent="1" source="9wh7mOHJgfpe4IS8YTvC-30" target="9wh7mOHJgfpe4IS8YTvC-36">
          <mxGeometry relative="1" as="geometry" />
        </mxCell>
        <mxCell id="9wh7mOHJgfpe4IS8YTvC-30" value="Order" style="rounded=1;whiteSpace=wrap;html=1;fontSize=12;fillColor=#d5e8d4;strokeColor=#82b366;" vertex="1" parent="1">
          <mxGeometry x="220" y="130" width="90" height="30" as="geometry" />
        </mxCell>
        <mxCell id="9wh7mOHJgfpe4IS8YTvC-31" value="Create" style="rounded=1;whiteSpace=wrap;html=1;fontSize=12;fillColor=#ffe6cc;strokeColor=#d79b00;" vertex="1" parent="1">
          <mxGeometry x="70" y="180" width="90" height="30" as="geometry" />
        </mxCell>
        <mxCell id="9wh7mOHJgfpe4IS8YTvC-32" value="Edit" style="rounded=1;whiteSpace=wrap;html=1;fontSize=12;fillColor=#dae8fc;strokeColor=#6c8ebf;" vertex="1" parent="1">
          <mxGeometry x="70" y="230" width="90" height="30" as="geometry" />
        </mxCell>
        <mxCell id="9wh7mOHJgfpe4IS8YTvC-33" value="Details" style="rounded=1;whiteSpace=wrap;html=1;fontSize=12;fillColor=#e1d5e7;strokeColor=#9673a6;" vertex="1" parent="1">
          <mxGeometry x="70" y="280" width="90" height="30" as="geometry" />
        </mxCell>
        <mxCell id="9wh7mOHJgfpe4IS8YTvC-34" value="Delete" style="rounded=1;whiteSpace=wrap;html=1;fontSize=12;fillColor=#f5f5f5;strokeColor=#666666;fontColor=#333333;" vertex="1" parent="1">
          <mxGeometry x="70" y="330" width="90" height="30" as="geometry" />
        </mxCell>
        <mxCell id="9wh7mOHJgfpe4IS8YTvC-35" value="Details" style="rounded=1;whiteSpace=wrap;html=1;fontSize=12;fillColor=#e1d5e7;strokeColor=#9673a6;" vertex="1" parent="1">
          <mxGeometry x="220" y="180" width="90" height="30" as="geometry" />
        </mxCell>
        <mxCell id="9wh7mOHJgfpe4IS8YTvC-36" value="Delete" style="rounded=1;whiteSpace=wrap;html=1;fontSize=12;fillColor=#f5f5f5;strokeColor=#666666;fontColor=#333333;" vertex="1" parent="1">
          <mxGeometry x="220" y="230" width="90" height="30" as="geometry" />
        </mxCell>
        <mxCell id="9wh7mOHJgfpe4IS8YTvC-37" value="Details" style="rounded=1;whiteSpace=wrap;html=1;fontSize=12;fillColor=#e1d5e7;strokeColor=#9673a6;" vertex="1" parent="1">
          <mxGeometry x="375" y="180" width="90" height="30" as="geometry" />
        </mxCell>
        <mxCell id="9wh7mOHJgfpe4IS8YTvC-38" value="Edit" style="rounded=1;whiteSpace=wrap;html=1;fontSize=12;fillColor=#dae8fc;strokeColor=#6c8ebf;" vertex="1" parent="1">
          <mxGeometry x="375" y="230" width="90" height="30" as="geometry" />
        </mxCell>
        <mxCell id="9wh7mOHJgfpe4IS8YTvC-39" value="Delete" style="rounded=1;whiteSpace=wrap;html=1;fontSize=12;fillColor=#f5f5f5;strokeColor=#666666;fontColor=#333333;" vertex="1" parent="1">
          <mxGeometry x="375" y="280" width="90" height="30" as="geometry" />
        </mxCell>
        <mxCell id="9wh7mOHJgfpe4IS8YTvC-40" value="Create" style="rounded=1;whiteSpace=wrap;html=1;fontSize=12;fillColor=#ffe6cc;strokeColor=#d79b00;" vertex="1" parent="1">
          <mxGeometry x="530" y="180" width="90" height="30" as="geometry" />
        </mxCell>
        <mxCell id="9wh7mOHJgfpe4IS8YTvC-41" value="Edit" style="rounded=1;whiteSpace=wrap;html=1;fontSize=12;fillColor=#dae8fc;strokeColor=#6c8ebf;" vertex="1" parent="1">
          <mxGeometry x="530" y="230" width="90" height="30" as="geometry" />
        </mxCell>
        <mxCell id="9wh7mOHJgfpe4IS8YTvC-42" value="Delete" style="rounded=1;whiteSpace=wrap;html=1;fontSize=12;fillColor=#f5f5f5;strokeColor=#666666;fontColor=#333333;" vertex="1" parent="1">
          <mxGeometry x="530" y="280" width="90" height="30" as="geometry" />
        </mxCell>
        <mxCell id="9wh7mOHJgfpe4IS8YTvC-57" value="Customer" style="text;html=1;align=center;verticalAlign=middle;resizable=0;points=[];autosize=1;strokeColor=none;fontSize=24;" vertex="1" parent="1">
          <mxGeometry y="440" width="120" height="30" as="geometry" />
        </mxCell>
        <mxCell id="9wh7mOHJgfpe4IS8YTvC-58" style="edgeStyle=orthogonalEdgeStyle;rounded=0;orthogonalLoop=1;jettySize=auto;html=1;exitX=0.5;exitY=1;exitDx=0;exitDy=0;fontSize=12;entryX=0.5;entryY=0;entryDx=0;entryDy=0;" edge="1" parent="1" source="9wh7mOHJgfpe4IS8YTvC-62" target="9wh7mOHJgfpe4IS8YTvC-80">
          <mxGeometry relative="1" as="geometry">
            <mxPoint x="260" y="600" as="targetPoint" />
          </mxGeometry>
        </mxCell>
        <mxCell id="9wh7mOHJgfpe4IS8YTvC-59" style="edgeStyle=orthogonalEdgeStyle;rounded=0;orthogonalLoop=1;jettySize=auto;html=1;exitX=0.5;exitY=1;exitDx=0;exitDy=0;entryX=0.5;entryY=0;entryDx=0;entryDy=0;fontSize=12;" edge="1" parent="1" source="9wh7mOHJgfpe4IS8YTvC-62" target="9wh7mOHJgfpe4IS8YTvC-76">
          <mxGeometry relative="1" as="geometry">
            <mxPoint x="577.5" y="600" as="targetPoint" />
          </mxGeometry>
        </mxCell>
        <mxCell id="9wh7mOHJgfpe4IS8YTvC-61" style="edgeStyle=orthogonalEdgeStyle;rounded=0;orthogonalLoop=1;jettySize=auto;html=1;exitX=0.5;exitY=1;exitDx=0;exitDy=0;entryX=0.5;entryY=0;entryDx=0;entryDy=0;fontSize=12;" edge="1" parent="1" source="9wh7mOHJgfpe4IS8YTvC-62" target="9wh7mOHJgfpe4IS8YTvC-72">
          <mxGeometry relative="1" as="geometry">
            <mxPoint x="100" y="600" as="targetPoint" />
          </mxGeometry>
        </mxCell>
        <mxCell id="9wh7mOHJgfpe4IS8YTvC-94" style="edgeStyle=orthogonalEdgeStyle;rounded=0;orthogonalLoop=1;jettySize=auto;html=1;exitX=0.5;exitY=1;exitDx=0;exitDy=0;fontSize=12;" edge="1" parent="1" source="9wh7mOHJgfpe4IS8YTvC-62" target="9wh7mOHJgfpe4IS8YTvC-77">
          <mxGeometry relative="1" as="geometry" />
        </mxCell>
        <mxCell id="9wh7mOHJgfpe4IS8YTvC-98" style="edgeStyle=orthogonalEdgeStyle;rounded=0;orthogonalLoop=1;jettySize=auto;html=1;exitX=0.5;exitY=1;exitDx=0;exitDy=0;entryX=0.5;entryY=0;entryDx=0;entryDy=0;fontSize=12;" edge="1" parent="1" source="9wh7mOHJgfpe4IS8YTvC-62" target="9wh7mOHJgfpe4IS8YTvC-97">
          <mxGeometry relative="1" as="geometry" />
        </mxCell>
        <mxCell id="9wh7mOHJgfpe4IS8YTvC-99" style="edgeStyle=orthogonalEdgeStyle;rounded=0;orthogonalLoop=1;jettySize=auto;html=1;exitX=0.5;exitY=1;exitDx=0;exitDy=0;entryX=0.5;entryY=0;entryDx=0;entryDy=0;fontSize=12;" edge="1" parent="1" source="9wh7mOHJgfpe4IS8YTvC-62" target="9wh7mOHJgfpe4IS8YTvC-95">
          <mxGeometry relative="1" as="geometry" />
        </mxCell>
        <mxCell id="9wh7mOHJgfpe4IS8YTvC-100" style="edgeStyle=orthogonalEdgeStyle;rounded=0;orthogonalLoop=1;jettySize=auto;html=1;exitX=0.5;exitY=1;exitDx=0;exitDy=0;entryX=0.5;entryY=0;entryDx=0;entryDy=0;fontSize=12;" edge="1" parent="1" source="9wh7mOHJgfpe4IS8YTvC-62" target="9wh7mOHJgfpe4IS8YTvC-96">
          <mxGeometry relative="1" as="geometry" />
        </mxCell>
        <mxCell id="9wh7mOHJgfpe4IS8YTvC-101" style="edgeStyle=orthogonalEdgeStyle;rounded=0;orthogonalLoop=1;jettySize=auto;html=1;exitX=0.5;exitY=1;exitDx=0;exitDy=0;fontSize=12;" edge="1" parent="1" source="9wh7mOHJgfpe4IS8YTvC-62" target="9wh7mOHJgfpe4IS8YTvC-66">
          <mxGeometry relative="1" as="geometry" />
        </mxCell>
        <mxCell id="9wh7mOHJgfpe4IS8YTvC-62" value="Home" style="rounded=1;whiteSpace=wrap;html=1;fontSize=12;fillColor=#fff2cc;strokeColor=#d6b656;" vertex="1" parent="1">
          <mxGeometry x="300" y="470" width="90" height="30" as="geometry" />
        </mxCell>
        <mxCell id="9wh7mOHJgfpe4IS8YTvC-63" style="edgeStyle=orthogonalEdgeStyle;rounded=0;orthogonalLoop=1;jettySize=auto;html=1;exitX=0;exitY=0.5;exitDx=0;exitDy=0;entryX=0;entryY=0.5;entryDx=0;entryDy=0;fontSize=12;" edge="1" parent="1" source="9wh7mOHJgfpe4IS8YTvC-66" target="9wh7mOHJgfpe4IS8YTvC-87">
          <mxGeometry relative="1" as="geometry" />
        </mxCell>
        <mxCell id="9wh7mOHJgfpe4IS8YTvC-64" style="edgeStyle=orthogonalEdgeStyle;rounded=0;orthogonalLoop=1;jettySize=auto;html=1;exitX=0;exitY=0.5;exitDx=0;exitDy=0;entryX=0;entryY=0.5;entryDx=0;entryDy=0;fontSize=12;" edge="1" parent="1" source="9wh7mOHJgfpe4IS8YTvC-66" target="9wh7mOHJgfpe4IS8YTvC-88">
          <mxGeometry relative="1" as="geometry" />
        </mxCell>
        <mxCell id="9wh7mOHJgfpe4IS8YTvC-65" style="edgeStyle=orthogonalEdgeStyle;rounded=0;orthogonalLoop=1;jettySize=auto;html=1;exitX=0;exitY=0.5;exitDx=0;exitDy=0;entryX=0;entryY=0.5;entryDx=0;entryDy=0;fontSize=12;" edge="1" parent="1" source="9wh7mOHJgfpe4IS8YTvC-66" target="9wh7mOHJgfpe4IS8YTvC-89">
          <mxGeometry relative="1" as="geometry" />
        </mxCell>
        <mxCell id="9wh7mOHJgfpe4IS8YTvC-109" style="edgeStyle=orthogonalEdgeStyle;rounded=0;orthogonalLoop=1;jettySize=auto;html=1;exitX=0;exitY=0.5;exitDx=0;exitDy=0;entryX=0;entryY=0.5;entryDx=0;entryDy=0;fontSize=12;" edge="1" parent="1" source="9wh7mOHJgfpe4IS8YTvC-66" target="9wh7mOHJgfpe4IS8YTvC-107">
          <mxGeometry relative="1" as="geometry" />
        </mxCell>
        <mxCell id="9wh7mOHJgfpe4IS8YTvC-110" style="edgeStyle=orthogonalEdgeStyle;rounded=0;orthogonalLoop=1;jettySize=auto;html=1;exitX=0;exitY=0.5;exitDx=0;exitDy=0;entryX=0;entryY=0.5;entryDx=0;entryDy=0;fontSize=12;" edge="1" parent="1" source="9wh7mOHJgfpe4IS8YTvC-66" target="9wh7mOHJgfpe4IS8YTvC-108">
          <mxGeometry relative="1" as="geometry" />
        </mxCell>
        <mxCell id="9wh7mOHJgfpe4IS8YTvC-66" value="Account" style="rounded=1;whiteSpace=wrap;html=1;fontSize=12;fillColor=#d5e8d4;strokeColor=#82b366;" vertex="1" parent="1">
          <mxGeometry x="375" y="580" width="90" height="30" as="geometry" />
        </mxCell>
        <mxCell id="9wh7mOHJgfpe4IS8YTvC-68" style="edgeStyle=orthogonalEdgeStyle;rounded=0;orthogonalLoop=1;jettySize=auto;html=1;exitX=0;exitY=0.5;exitDx=0;exitDy=0;entryX=0;entryY=0.5;entryDx=0;entryDy=0;fontSize=12;" edge="1" parent="1" source="9wh7mOHJgfpe4IS8YTvC-72" target="9wh7mOHJgfpe4IS8YTvC-81">
          <mxGeometry relative="1" as="geometry" />
        </mxCell>
        <mxCell id="9wh7mOHJgfpe4IS8YTvC-69" style="edgeStyle=orthogonalEdgeStyle;rounded=0;orthogonalLoop=1;jettySize=auto;html=1;exitX=0;exitY=0.5;exitDx=0;exitDy=0;entryX=0;entryY=0.5;entryDx=0;entryDy=0;fontSize=12;" edge="1" parent="1" source="9wh7mOHJgfpe4IS8YTvC-72" target="9wh7mOHJgfpe4IS8YTvC-82">
          <mxGeometry relative="1" as="geometry" />
        </mxCell>
        <mxCell id="9wh7mOHJgfpe4IS8YTvC-72" value="Recipe" style="rounded=1;whiteSpace=wrap;html=1;fontSize=12;fillColor=#d5e8d4;strokeColor=#82b366;" vertex="1" parent="1">
          <mxGeometry x="70" y="580" width="90" height="30" as="geometry" />
        </mxCell>
        <mxCell id="9wh7mOHJgfpe4IS8YTvC-73" style="edgeStyle=orthogonalEdgeStyle;rounded=0;orthogonalLoop=1;jettySize=auto;html=1;exitX=0;exitY=0.5;exitDx=0;exitDy=0;entryX=0;entryY=0.5;entryDx=0;entryDy=0;fontSize=12;" edge="1" parent="1" source="9wh7mOHJgfpe4IS8YTvC-76" target="9wh7mOHJgfpe4IS8YTvC-90">
          <mxGeometry relative="1" as="geometry" />
        </mxCell>
        <mxCell id="9wh7mOHJgfpe4IS8YTvC-76" value="Order" style="rounded=1;whiteSpace=wrap;html=1;fontSize=12;fillColor=#d5e8d4;strokeColor=#82b366;" vertex="1" parent="1">
          <mxGeometry x="530" y="580" width="90" height="30" as="geometry" />
        </mxCell>
        <mxCell id="9wh7mOHJgfpe4IS8YTvC-77" value="Our Store" style="rounded=1;whiteSpace=wrap;html=1;fontSize=12;fillColor=#d5e8d4;strokeColor=#82b366;" vertex="1" parent="1">
          <mxGeometry x="690" y="580" width="90" height="30" as="geometry" />
        </mxCell>
        <mxCell id="9wh7mOHJgfpe4IS8YTvC-78" style="edgeStyle=orthogonalEdgeStyle;rounded=0;orthogonalLoop=1;jettySize=auto;html=1;exitX=0;exitY=0.5;exitDx=0;exitDy=0;entryX=0;entryY=0.5;entryDx=0;entryDy=0;fontSize=12;" edge="1" parent="1" source="9wh7mOHJgfpe4IS8YTvC-80" target="9wh7mOHJgfpe4IS8YTvC-85">
          <mxGeometry relative="1" as="geometry" />
        </mxCell>
        <mxCell id="9wh7mOHJgfpe4IS8YTvC-80" value="Products" style="rounded=1;whiteSpace=wrap;html=1;fontSize=12;fillColor=#d5e8d4;strokeColor=#82b366;" vertex="1" parent="1">
          <mxGeometry x="220" y="580" width="90" height="30" as="geometry" />
        </mxCell>
        <mxCell id="9wh7mOHJgfpe4IS8YTvC-81" value="Recipe Details" style="rounded=1;whiteSpace=wrap;html=1;fontSize=12;fillColor=#dae8fc;strokeColor=#6c8ebf;" vertex="1" parent="1">
          <mxGeometry x="70" y="630" width="90" height="30" as="geometry" />
        </mxCell>
        <mxCell id="9wh7mOHJgfpe4IS8YTvC-82" value="Create" style="rounded=1;whiteSpace=wrap;html=1;fontSize=12;fillColor=#e1d5e7;strokeColor=#9673a6;" vertex="1" parent="1">
          <mxGeometry x="70" y="680" width="90" height="30" as="geometry" />
        </mxCell>
        <mxCell id="9wh7mOHJgfpe4IS8YTvC-85" value="Product Details" style="rounded=1;whiteSpace=wrap;html=1;fontSize=12;fillColor=#dae8fc;strokeColor=#6c8ebf;" vertex="1" parent="1">
          <mxGeometry x="220" y="630" width="90" height="30" as="geometry" />
        </mxCell>
        <mxCell id="9wh7mOHJgfpe4IS8YTvC-87" value="Login" style="rounded=1;whiteSpace=wrap;html=1;fontSize=12;fillColor=#dae8fc;strokeColor=#6c8ebf;" vertex="1" parent="1">
          <mxGeometry x="375" y="630" width="90" height="30" as="geometry" />
        </mxCell>
        <mxCell id="9wh7mOHJgfpe4IS8YTvC-88" value="Register" style="rounded=1;whiteSpace=wrap;html=1;fontSize=12;fillColor=#e1d5e7;strokeColor=#9673a6;" vertex="1" parent="1">
          <mxGeometry x="375" y="680" width="90" height="30" as="geometry" />
        </mxCell>
        <mxCell id="9wh7mOHJgfpe4IS8YTvC-89" value="Forgot Password" style="rounded=1;whiteSpace=wrap;html=1;fontSize=12;fillColor=#ffe6cc;strokeColor=#d79b00;" vertex="1" parent="1">
          <mxGeometry x="375" y="730" width="90" height="30" as="geometry" />
        </mxCell>
        <mxCell id="9wh7mOHJgfpe4IS8YTvC-90" value="Cart" style="rounded=1;whiteSpace=wrap;html=1;fontSize=12;fillColor=#dae8fc;strokeColor=#6c8ebf;" vertex="1" parent="1">
          <mxGeometry x="530" y="630" width="90" height="30" as="geometry" />
        </mxCell>
        <mxCell id="9wh7mOHJgfpe4IS8YTvC-95" value="Checkout" style="rounded=1;whiteSpace=wrap;html=1;fontSize=12;fillColor=#d5e8d4;strokeColor=#82b366;" vertex="1" parent="1">
          <mxGeometry x="-80" y="580" width="90" height="30" as="geometry" />
        </mxCell>
        <mxCell id="9wh7mOHJgfpe4IS8YTvC-96" value="Contact Us" style="rounded=1;whiteSpace=wrap;html=1;fontSize=12;fillColor=#d5e8d4;strokeColor=#82b366;" vertex="1" parent="1">
          <mxGeometry x="850" y="580" width="90" height="30" as="geometry" />
        </mxCell>
        <mxCell id="9wh7mOHJgfpe4IS8YTvC-97" value="Manage" style="rounded=1;whiteSpace=wrap;html=1;fontSize=12;fillColor=#d5e8d4;strokeColor=#82b366;" vertex="1" parent="1">
          <mxGeometry x="-230" y="580" width="90" height="30" as="geometry" />
        </mxCell>
        <mxCell id="9wh7mOHJgfpe4IS8YTvC-102" value="Require Login" style="text;html=1;align=center;verticalAlign=middle;resizable=0;points=[];autosize=1;strokeColor=none;fontSize=12;" vertex="1" parent="1">
          <mxGeometry x="-230" y="510" width="90" height="20" as="geometry" />
        </mxCell>
        <mxCell id="9wh7mOHJgfpe4IS8YTvC-103" value="Profil" style="rounded=1;whiteSpace=wrap;html=1;fontSize=12;fillColor=#dae8fc;strokeColor=#6c8ebf;" vertex="1" parent="1">
          <mxGeometry x="-230" y="630" width="90" height="30" as="geometry" />
        </mxCell>
        <mxCell id="9wh7mOHJgfpe4IS8YTvC-104" value="My Order" style="rounded=1;whiteSpace=wrap;html=1;fontSize=12;fillColor=#e1d5e7;strokeColor=#9673a6;" vertex="1" parent="1">
          <mxGeometry x="-230" y="680" width="90" height="30" as="geometry" />
        </mxCell>
        <mxCell id="9wh7mOHJgfpe4IS8YTvC-105" value="My Recipe" style="rounded=1;whiteSpace=wrap;html=1;fontSize=12;fillColor=#ffe6cc;strokeColor=#d79b00;" vertex="1" parent="1">
          <mxGeometry x="-230" y="730" width="90" height="30" as="geometry" />
        </mxCell>
        <mxCell id="9wh7mOHJgfpe4IS8YTvC-106" value="Order Success" style="rounded=1;whiteSpace=wrap;html=1;fontSize=12;fillColor=#dae8fc;strokeColor=#6c8ebf;" vertex="1" parent="1">
          <mxGeometry x="-80" y="630" width="90" height="30" as="geometry" />
        </mxCell>
        <mxCell id="9wh7mOHJgfpe4IS8YTvC-107" value="Reset Password" style="rounded=1;whiteSpace=wrap;html=1;fontSize=12;fillColor=#f8cecc;strokeColor=#b85450;" vertex="1" parent="1">
          <mxGeometry x="375" y="780" width="90" height="30" as="geometry" />
        </mxCell>
        <mxCell id="9wh7mOHJgfpe4IS8YTvC-108" value="Confirm Email" style="rounded=1;whiteSpace=wrap;html=1;fontSize=12;fillColor=#f5f5f5;strokeColor=#666666;fontColor=#333333;" vertex="1" parent="1">
          <mxGeometry x="375" y="830" width="90" height="30" as="geometry" />
        </mxCell>
      </root>
    </mxGraphModel>
  </diagram>
</mxfile>
